PathFileType	4	(X/Y/Z)	C:\Users\Basilio\Documents\Thesis Gigler\squatting_fais\c3dfiles\039\SLS_pre_front1\markers_experimental.trc
DataRate	CameraRate	NumFrames	NumMarkers	Units	OrigDataRate	OrigDataStartFrame	OrigNumFrames
200.000000	200.000000	4	63	mm	200.000000	1229	1405
Frame#	Time	FHD			RBHD			C7			T10			LSHO			LUUPA			LMUPA			LDUPA			LLEP			LMEP			LRAD			LUL			LRFIN			RSHO			RUPA1			RMUPA			RDUPA			RLEP			RMEP			RRAD			RUL			RUFIN			LASI			RASI			USACR			LSACR			RSACR			LTHI1			LTHI2			LTHI3			LTHI4			LLFC			LMFC			LTIB1			LTIB2			LTIB3			LTIB4			LLMAL			LMMAL			LHEE			LMT1			LMT2			LMT5			RTHI			RTHI2			RTHI3			RTHI4			RLFC			RMFC			RTIB1			RTIB2			RTIB3			RTIB4			RLMAL			RMMAL			RHEE			RMT1			RMT2			RMT5			LBHD			CLAV			*61			*62			
		X1	Y1	Z1	X2	Y2	Z2	X3	Y3	Z3	X4	Y4	Z4	X5	Y5	Z5	X6	Y6	Z6	X7	Y7	Z7	X8	Y8	Z8	X9	Y9	Z9	X10	Y10	Z10	X11	Y11	Z11	X12	Y12	Z12	X13	Y13	Z13	X14	Y14	Z14	X15	Y15	Z15	X16	Y16	Z16	X17	Y17	Z17	X18	Y18	Z18	X19	Y19	Z19	X20	Y20	Z20	X21	Y21	Z21	X22	Y22	Z22	X23	Y23	Z23	X24	Y24	Z24	X25	Y25	Z25	X26	Y26	Z26	X27	Y27	Z27	X28	Y28	Z28	X29	Y29	Z29	X30	Y30	Z30	X31	Y31	Z31	X32	Y32	Z32	X33	Y33	Z33	X34	Y34	Z34	X35	Y35	Z35	X36	Y36	Z36	X37	Y37	Z37	X38	Y38	Z38	X39	Y39	Z39	X40	Y40	Z40	X41	Y41	Z41	X42	Y42	Z42	X43	Y43	Z43	X44	Y44	Z44	X45	Y45	Z45	X46	Y46	Z46	X47	Y47	Z47	X48	Y48	Z48	X49	Y49	Z49	X50	Y50	Z50	X51	Y51	Z51	X52	Y52	Z52	X53	Y53	Z53	X54	Y54	Z54	X55	Y55	Z55	X56	Y56	Z56	X57	Y57	Z57	X58	Y58	Z58	X59	Y59	Z59	X60	Y60	Z60	X61	Y61	Z61	X62	Y62	Z62	X63	Y63	Z63	

1230	6.145	-311.1258544921876	1803.94091796875	-625.5316772460939	-441.4512023925782	1773.61279296875	-621.4489135742189	-489.8331298828126	1597.96142578125	-709.0564575195314	-484.2918090820314	1292.509033203125	-752.0401611328126	-403.8519287109376	1612.876953125	-872.1434326171877	-243.7709045410157	1570.791625976563	-989.7141113281252	-218.9426574707032	1603.5751953125	-961.0046386718752	-174.5733642578125	1579.816284179688	-994.0554809570315	-107.7691726684571	1588.566162109375	-993.4905395507815	-101.8083953857422	1516.481811523438	-962.3762207031252	172.5953063964844	1613.433837890625	-907.9044189453127	172.8743286132813	1624.8515625	-983.4093017578127	252.8396453857422	1645.162963867188	-898.2583007812502	-388.9903869628907	1588.231811523438	-540.6324462890626	-233.9999694824219	1510.904418945313	-437.6076660156251	-205.1727294921876	1546.911743164063	-457.7037658691407	-164.8933715820313	1509.287963867188	-432.8205871582032	-101.4374771118164	1524.665893554688	-438.0930786132814	-93.61148071289064	1460.066772460938	-481.8870239257814	187.9925384521485	1576.24169921875	-510.1077270507814	186.9173431396485	1565.356323242188	-433.3514099121095	275.2656555175782	1608.072875976563	-499.7363891601564	-306.2382202148438	1125.194213867188	-879.5419921875002	-305.4441528320313	1097.552856445313	-656.1555175781251	-489.2712707519532	1162.403686523438	-763.0710449218751	-492.2655029296876	1133.2939453125	-793.712341308594	-493.6513671875001	1128.133056640625	-735.2502441406251	-350.8853454589844	844.681579589844	-975.218933105469	-314.0775451660157	768.861022949219	-979.528015136719	-267.3261413574219	773.8613891601565	-968.3421630859377	-338.5023193359376	713.7366333007814	-974.4558105468752	-336.3341369628907	592.2884521484376	-981.4925537109377	-307.4644470214844	558.3233032226564	-869.349548339844	-290.2944946289063	439.753631591797	-972.2764282226565	-360.3445129394532	408.3673706054689	-1016.31640625	-320.1140747070313	399.107635498047	-1000.506774902344	-325.6873474121094	316.2644653320313	-969.2736816406252	-401.6524047851564	156.201416015625	-1012.787963867188	-384.0681762695314	150.2659454345703	-928.4129638671877	-475.4115295410157	120.1055755615235	-974.8981933593752	-249.3623809814454	62.70857238769533	-953.592468261719	-255.7246398925782	63.80398559570314	-996.653991699219	-303.8118896484376	50.37520980834962	-1047.71142578125	-345.0210876464844	822.7623291015627	-612.7693481445314	-301.1724243164063	771.5108642578127	-611.6119995117189	-269.5451965332032	777.9544067382815	-616.8490600585939	-321.7217712402344	690.4875488281251	-630.5133666992189	-344.6295471191407	550.5220947265626	-663.3156738281251	-304.5494079589844	549.5567626953126	-777.4416503906252	-304.1352844238282	339.5031738281251	-689.3265380859376	-388.932098388672	273.6849670410157	-689.0256958007814	-343.0323181152344	264.3171691894532	-687.1021728515626	-323.4590454101563	218.7587890625001	-721.3945922851564	-389.988983154297	123.8355407714844	-708.0238037109376	-356.3754272460938	145.7644958496094	-789.2182617187502	-455.0308227539064	106.9821548461914	-767.2166748046876	-232.2864379882813	58.58048248291017	-775.0527954101565	-236.8469238281251	57.3153648376465	-729.2662963867189	-292.5800170898438	37.34183883666993	-679.4869995117189	-454.1825561523439	1770.546875	-761.9630737304689	nan	nan	nan	nan	nan	nan	nan	nan	nan	
1231	6.15	-311.1653137207032	1803.921630859375	-625.6766357421876	-441.4264526367189	1773.657592773438	-621.7324829101564	-489.8607177734376	1597.959228515625	-709.3632202148439	-484.1543273925782	1292.494018554688	-752.4384155273439	-403.9273376464845	1612.8935546875	-872.4696044921877	-243.8185577392579	1570.62548828125	-990.1046142578127	-218.9407958984376	1603.3994140625	-961.366394042969	-174.5467376708985	1579.65966796875	-994.4434204101565	-107.7076492309571	1588.34033203125	-993.974548339844	-101.5544891357422	1515.767211914063	-962.8154907226565	172.6341857910157	1613.17626953125	-908.323913574219	172.8645324707032	1624.38427734375	-983.9069824218752	252.8399047851563	1644.720825195313	-898.6225585937502	-389.074188232422	1588.136474609375	-540.9929809570314	-234.1629638671876	1510.692993164063	-437.9575500488282	-205.2762756347657	1546.656860351563	-457.9789123535157	-165.029037475586	1509.043334960938	-433.1726379394532	-101.5836029052735	1524.464233398438	-438.4595031738282	-93.61111450195314	1460.109619140625	-481.836395263672	187.9859008789063	1575.884643554688	-510.2790832519532	186.8360290527344	1565.004150390625	-433.5687255859376	275.1528015136719	1607.818603515625	-499.9225463867189	-305.9651794433594	1125.15087890625	-879.763610839844	-305.5088500976563	1097.60107421875	-656.3189697265626	-489.2824707031251	1162.41796875	-763.4495239257814	-492.1775207519532	1133.224731445313	-794.1370849609377	-493.6716613769532	1128.043090820313	-735.7627563476564	-350.9655151367188	844.719421386719	-975.4133300781252	-314.1549682617188	768.8816528320315	-979.7808227539065	-267.8254394531251	774.1299438476565	-968.764831542969	-338.6555175781251	713.6889038085939	-974.7053833007815	-336.4640197753907	592.2327270507814	-981.6612548828127	-307.6687316894532	558.3283081054689	-869.5607910156252	-290.4508361816407	439.7845458984376	-972.5063476562502	-360.5309143066407	408.3220825195314	-1016.56787109375	-320.2812500000001	399.0855407714845	-1000.705993652344	-325.8323669433594	316.2417602539063	-969.3814086914065	-401.6807861328126	156.1149139404297	-1012.808410644531	-384.0423583984376	150.1980438232422	-928.414489746094	-475.3912048339845	120.1294708251953	-974.9140625000002	-249.3746643066407	62.75113677978517	-953.579772949219	-255.7711334228516	63.76795578002931	-997.0704345703127	-303.7944335937501	50.31774139404298	-1047.692504882813	-345.2155456542969	822.7993774414065	-612.9251098632814	-301.2580261230469	771.574157714844	-611.7527465820314	-269.6689758300782	777.9751586914065	-616.9402465820314	-321.8189086914063	690.5232543945314	-630.6533813476564	-344.6892395019532	550.5782470703126	-663.4270019531251	-304.5003967285157	549.5626220703126	-777.578796386719	-304.2188415527344	339.5269470214844	-689.2847290039064	-389.0220031738282	273.7131958007813	-689.0694580078126	-343.0774230957032	264.3477478027344	-687.1117553710939	-323.4716186523438	218.8007812500001	-721.3179321289064	-390.0247192382814	123.8562393188477	-708.0448608398439	-356.4121704101563	145.741683959961	-789.2272949218752	-455.0215454101564	106.9940338134766	-767.2313842773439	-232.161117553711	58.46231079101564	-774.999938964844	-236.8349761962891	57.33220672607423	-729.2199707031251	-292.5703735351563	37.3414535522461	-679.4801025390626	-453.9563598632814	1770.555786132813	-762.3526611328126	nan	nan	nan	nan	nan	nan	nan	nan	nan	
1232	6.155	-311.2234191894532	1803.845947265625	-625.7861938476564	-441.4993896484376	1773.461303710938	-621.9074096679689	-489.9475402832032	1597.92822265625	-709.5559082031251	-484.0473937988282	1292.492553710938	-752.8468627929689	-403.9108886718751	1612.844116210938	-872.7855224609377	-243.718734741211	1570.4931640625	-990.4739379882815	-218.9213256835938	1603.235717773438	-961.7340087890627	-174.4925842285157	1579.422729492188	-994.796081542969	-107.658920288086	1588.155029296875	-994.387145996094	-101.6436386108399	1515.821533203125	-963.0567626953127	172.6934204101563	1612.804931640625	-908.6968994140627	172.9754180908203	1624.037353515625	-984.2677001953127	252.8790435791016	1644.2900390625	-898.9555664062502	-389.1077575683595	1588.058349609375	-541.3399658203126	-234.2544555664063	1510.463012695313	-438.1930541992189	-205.3929595947266	1546.325073242188	-458.231658935547	-165.1913452148438	1508.874389648438	-433.5633850097657	-101.7694625854492	1524.204345703125	-438.736297607422	-93.66782379150392	1459.486572265625	-482.4265136718751	187.2622375488282	1575.977905273438	-510.4461669921876	186.780502319336	1564.657470703125	-433.8659667968751	275.0570068359376	1607.546020507813	-500.1550292968751	-305.8115234375001	1125.166625976563	-879.9510498046877	-305.5579528808594	1097.652709960938	-656.5078735351564	-489.3287658691407	1162.48681640625	-763.8175048828126	-492.0734863281251	1133.217895507813	-794.5399169921877	-493.8773498535157	1128.1025390625	-736.1492309570314	-350.9662170410157	844.6405029296877	-975.6217041015627	-314.2788696289063	768.7487792968752	-980.0718383789065	-267.9888916015626	774.109313964844	-969.0211181640627	-338.7360229492188	713.6757202148439	-974.881286621094	-336.6746826171876	592.1653442382814	-981.8526000976565	-307.6966247558594	558.2742309570314	-869.7250976562502	-290.6017150878907	439.8150634765626	-972.717224121094	-360.6314392089844	408.305389404297	-1016.641845703125	-320.3970642089844	399.1196289062501	-1000.865539550781	-325.9017944335938	316.2132263183594	-969.5757446289065	-401.6960754394532	156.0538330078125	-1012.813354492188	-384.072235107422	150.126708984375	-928.4586181640627	-475.3892822265626	120.0773849487305	-974.9019775390627	-249.3888702392579	62.73372268676759	-953.573425292969	-255.7412109375001	63.71883773803712	-996.6655273437502	-303.8180847167969	50.33808517456056	-1047.73583984375	-345.4396667480469	822.7543945312502	-613.0961303710939	-301.3741455078126	771.6540527343752	-611.8420410156251	-269.8183593750001	777.945983886719	-617.0221557617189	-321.9849548339844	690.5158081054689	-630.8167724609376	-344.7443237304688	550.5949096679689	-663.5542602539064	-304.4086608886719	549.5764770507814	-777.671569824219	-304.2658996582032	339.5416870117188	-689.3107910156251	-389.0542907714845	273.7020263671876	-689.1397705078126	-343.1261291503907	264.3648986816407	-687.1383056640626	-323.4769287109376	218.8439025878907	-721.3363037109376	-390.0469665527345	123.8504638671875	-708.0958251953126	-356.4362792968751	145.7835235595703	-789.2602539062502	-455.0458374023439	107.0098724365235	-767.2467041015626	-232.1500396728516	58.47651290893556	-775.0142822265627	-236.8342895507813	57.34047698974611	-729.2152709960939	-292.5875854492188	37.29133224487305	-679.4824218750001	-453.7705688476564	1770.6396484375	-762.7857666015626	nan	nan	nan	nan	nan	nan	nan	nan	nan	
1233	6.16	-311.2297363281251	1803.838500976563	-625.9382934570314	-441.5163879394532	1773.430786132813	-622.2060546875001	-490.0375061035157	1597.962890625	-709.7954101562501	-484.0365295410157	1292.50390625	-753.1780395507814	-403.966033935547	1612.86669921875	-873.123718261719	-243.7112884521485	1570.321655273438	-990.914733886719	-218.8282623291016	1602.449096679688	-961.7294921875002	-174.5496215820313	1579.23828125	-995.2454833984377	-107.8371963500977	1588.23095703125	-995.242126464844	-101.7215805053711	1515.559448242188	-963.5346679687502	172.6347808837891	1612.52197265625	-909.1546020507815	173.0158996582032	1623.666381835938	-984.640319824219	252.9383544921876	1643.885498046875	-899.373962402344	-389.123748779297	1588.088012695313	-541.7111816406251	-234.3978118896485	1510.248901367188	-438.4549865722657	-205.4832000732422	1546.22216796875	-458.5319824218751	-165.3887634277344	1508.554565429688	-433.8445129394532	-101.8986358642578	1523.91748046875	-438.939910888672	-93.85264587402345	1459.31591796875	-482.7699279785157	187.2369842529297	1575.653198242188	-510.6176757812501	186.4370422363282	1564.003540039063	-434.3973999023439	274.9166259765626	1607.176879882813	-500.2898864746095	-305.4791564941407	1125.179931640625	-880.1340332031252	-305.5532226562501	1097.7109375	-656.6224975585939	-489.4001770019532	1162.739990234375	-764.1248779296876	-492.0720825195314	1133.214599609375	-794.8666992187502	-493.6745605468751	1128.017333984375	-736.3942260742189	-350.9783630371094	844.5727539062502	-975.8316650390627	-314.3476867675782	768.7476806640627	-980.268249511719	-268.0356140136719	774.0818481445315	-969.2893676757815	-338.9214172363282	713.6638793945314	-975.025817871094	-336.8890075683594	592.1176757812501	-982.0150146484377	-307.7684631347657	558.3071289062501	-869.8967285156252	-290.7698669433594	439.8395080566407	-972.9705200195315	-360.8510742187501	408.2725219726564	-1016.776611328125	-320.9119262695313	398.8789978027345	-1000.561157226563	-326.0407714843751	316.1588439941407	-969.724060058594	-401.7728576660157	156.2990112304688	-1012.75927734375	-384.0725402832032	150.0738067626953	-928.4953613281252	-475.3994750976564	120.0294342041016	-974.8969726562502	-249.3503417968751	62.72753906250001	-953.6190185546877	-255.7850341796876	63.72082519531251	-997.0781860351565	-303.8297424316407	50.2888641357422	-1047.735473632813	-345.6454772949219	822.7769165039065	-613.2135009765626	-301.4701232910157	771.6488037109377	-611.9715576171876	-269.9199218750001	778.0574340820315	-617.0672607421876	-322.0853576660157	690.5166015625001	-630.9137573242189	-344.8236694335938	550.5994873046876	-663.6436767578126	-304.2751159667969	549.5405883789064	-777.7823486328127	-304.3081665039063	339.5556335449219	-689.3734130859376	-389.1086425781251	273.7292480468751	-689.1744384765626	-343.1747741699219	264.3689880371094	-687.1950683593751	-323.5776062011719	218.8844757080079	-721.3562011718751	-390.041717529297	123.8419494628907	-708.0892944335939	-356.4025573730469	145.7557983398438	-789.2322998046877	-455.0278625488282	106.9933090209961	-767.2409057617189	-232.1081237792969	58.36866760253908	-775.0108642578127	-236.8291168212891	57.31924438476564	-729.2119140625001	-292.5744934082032	37.2731056213379	-679.4505004882814	-452.8810424804689	1770.682983398438	-763.5144653320314	nan	nan	nan	nan	nan	nan	nan	nan	nan	
